<svg width="24" height="24" viewBox="0 0 16 12" fill="none" xmlns="http://www.w3.org/2000/svg">
<path d="M14.1288 0.5C14.563 0.5 14.9939 0.902363 14.9939 1.5C14.9939 1.83234 14.8513 2.1309 14.6297 2.31427C14.6296 2.31438 14.6295 2.31448 14.6293 2.31458L8.44285 7.41324C8.44269 7.41337 8.44253 7.41351 8.44237 7.41364C8.30269 7.52775 8.12477 7.52775 7.98509 7.41364C7.98493 7.41351 7.98477 7.41337 7.98461 7.41324L1.79833 2.31475C1.79822 2.31466 1.79811 2.31457 1.798 2.31448C1.57633 2.13092 1.43359 1.83212 1.43359 1.5C1.43359 0.902293 1.86419 0.5 2.29862 0.5H14.1288ZM6.80371 8.98585C7.63678 9.67243 8.79068 9.67243 9.62375 8.98585L14.9939 4.56001V10C14.9939 10.8724 14.3582 11.5 13.6738 11.5H2.75363C2.06805 11.5 1.43359 10.8727 1.43359 10V4.56001L6.80371 8.98585Z" fill="#66BB6A" stroke="#66BB6A"/>
</svg>
