<svg width="24" height="24" viewBox="0 0 16 16" fill="none" xmlns="http://www.w3.org/2000/svg">
<path d="M14.9832 11.9906L14.9834 11.9896C15.0308 11.7657 14.9096 11.5078 14.7209 11.3894L11.6574 9.94658L11.6556 9.94573C11.5227 9.88247 11.3508 9.91441 11.2364 10.0704L11.2341 10.0736L11.2341 10.0736L9.9804 11.7548L9.72223 12.101L9.34216 11.8959C7.26992 10.7779 5.59535 8.93308 4.58677 6.6757L4.43679 6.34001L4.7125 6.09679L6.24185 4.74759C6.38328 4.61959 6.44716 4.37875 6.3639 4.16302C6.36382 4.16282 6.36374 4.16262 6.36367 4.16243L5.04189 0.775275C4.94868 0.543735 4.75517 0.473429 4.61263 0.509722L4.61208 0.509861L1.74526 1.23639L1.74396 1.23672L1.74395 1.23671C1.59003 1.27528 1.43359 1.44322 1.43359 1.70322C1.43359 9.35638 7.08901 15.4994 13.9449 15.5L14.9832 11.9906ZM14.9832 11.9906L14.3219 15.1404L14.3218 15.1411M14.9832 11.9906L14.3218 15.1411M14.3218 15.1411C14.2709 15.3852 14.0955 15.5 13.945 15.5L14.3218 15.1411Z" fill="#66BB6A" stroke="#66BB6A"/>
</svg>
